<?xml version="1.0" encoding="UTF-8" standalone="no"?>
<!DOCTYPE svg PUBLIC "-//W3C//DTD SVG 1.1//EN" "http://www.w3.org/Graphics/SVG/1.1/DTD/svg11.dtd">
<svg width="100%" height="100%" viewBox="0 0 520 520" version="1.1" xmlns="http://www.w3.org/2000/svg" xmlns:xlink="http://www.w3.org/1999/xlink" xml:space="preserve" xmlns:serif="http://www.serif.com/" style="fill-rule:evenodd;clip-rule:evenodd;stroke-linejoin:round;stroke-miterlimit:2;">
    <rect id="Backdrop" x="0" y="0" width="520" height="520" style="fill:rgb(30,119,123);"/>
    <g id="Logo">
        <path id="SticksStrings" d="M150.776,-119.243L154.653,-127.04L165.885,-123.076L175.135,-116.469L173.075,-112.335L217.765,-56.16L251.688,-55.577L253.676,-59.521L267.494,-54.141L277.398,-47.171L273.877,-40.2L322.082,67.908L330.595,71.26L339.042,78.184L332.416,91.184L332.444,91.189L307.5,237.877L319.341,249.504L310.292,266.99L299.558,263.647L79.253,365.123L64.487,374.41L56.438,390.348L39.93,387.658L33.816,376.408C33.823,376.408 34.556,374.967 35.931,372.25L-130.487,175.206L-154.027,168.6C-154.027,168.6 -158.873,159.046 -158.873,159.185L-150.427,141.877L-144.643,143.561L-60.44,12.359C-64.038,7.78 -66.078,5.196 -66.097,5.196L-58.961,-9.076L-51.855,-6.444L-46.696,-52.135L-46.995,-52.249C-46.995,-52.249 -52.81,-58.618 -52.949,-58.757L-43.948,-76.203L-22.676,-67.828L150.776,-119.243ZM37.893,368.373L-123.234,177.595L-35.744,255.541C-35.959,255.965 -36.069,256.176 -36.069,256.166L-30.783,264.315L-16.468,268.059L-14.158,263.422L76.073,264.027L55.033,334.432C47.443,349.471 41.527,361.187 37.893,368.373ZM218.14,273.049L188.681,264.782L120.085,264.322L69.021,365.432L77.344,361.599L218.14,273.049ZM294.584,261.534L291.832,258.713L241.215,269.351L236.717,278.263L223.335,274.507L105.42,348.666L294.584,261.534ZM65.272,314.139L80.24,264.055L90.501,264.124C81.317,282.333 72.785,299.248 65.272,314.139ZM172.529,160.477L180.529,144.638L288.522,255.321L243.522,264.778L244.194,263.448L236.163,254.448L227.678,251.977L172.529,160.477ZM122.098,260.335L174.08,260.684L128.397,247.863L122.098,260.335ZM81.433,260.063L92.511,260.137L102.384,240.562L88.431,236.646L81.433,260.063ZM-12.171,259.435L77.266,260.035L84.579,235.565L10.134,214.672L-12.171,259.435ZM-29.554,243.191C-31.348,246.782 -32.804,249.694 -33.881,251.843L-115.034,179.543L-34.668,202.098L-29.554,243.191ZM139.314,226.246L222.013,250.328L170.4,164.693L139.314,226.246ZM-30.491,203.27L-12.209,208.401C-17.745,219.517 -22.528,229.111 -26.327,236.727L-30.491,203.27ZM191.141,123.625L301.198,231.69L278.693,79.051L216.432,73.546L191.141,123.625ZM301.618,81.078L282.789,79.413L304.894,229.336L328.366,91.308L301.618,81.078ZM108.978,179.986L114.852,186.995L105.337,206.534L98.071,204.389L95.363,213.448L113.407,218.703L123.292,199.099C130.126,185.547 136.959,171.995 143.792,158.443L154.196,137.808L145.867,123.988L108.978,179.986ZM25.235,193.028L91.523,212.33L94.234,203.256L87.497,201.267L80.486,192.307L30.698,185.234L25.235,193.028ZM25.192,184.451L22.316,190.224L26.256,184.602L25.192,184.451ZM33.274,181.559L76.928,187.762L75.059,185.372L51.605,155.406L33.274,181.559ZM-0.78,185.452L1.401,181.071L-32.241,176.291L-0.78,185.452ZM27.072,180.678L28.831,180.928L49.028,152.114L44.309,146.084L27.072,180.678ZM-34.389,171.946L-53.082,21.733C-35.025,44.75 -1.21,87.934 28.723,126.173C19.716,144.276 11.109,161.572 3.279,177.298L-34.389,171.946ZM69.855,129.37L76.745,141.525L106.296,176.786L143.578,120.191L122.414,85.077L109.895,72.246L69.855,129.37ZM-140.639,144.727L-59.335,168.402L-38.492,171.363L-57.858,15.742L-140.639,144.727ZM148.306,120.286L156.323,133.588L160.897,124.517L151.716,115.109L148.306,120.286ZM60.693,113.204L67.671,125.516L107.053,69.332L103.883,66.084C103.883,66.084 110.608,52.633 110.608,52.511L113.905,53.704L124.798,13.453L112.702,8.827L60.693,113.204ZM57.828,118.954L62.541,124.577L58.542,117.521L57.828,118.954ZM146.017,116.489L148.857,112.178L134.631,97.598L146.017,116.489ZM163.795,96.774L171.212,104.057L184.143,78.409L187.868,71.021L181.151,70.427L163.795,96.774ZM-46.488,-4.456L-18.967,-19.229L44.955,93.549L41.819,99.852L-45.199,-3.979L-46.488,-4.456ZM132.589,66.133L160.886,93.918L176.624,70.027L132.589,66.133ZM-15.441,-21.121L5.293,-32.251L91.187,0.599L77.079,28.966C71.15,40.887 65.221,52.807 59.292,64.728L47.104,89.229L-15.441,-21.121ZM282.189,75.345L287.962,75.855L281.924,73.546L282.189,75.345ZM218.373,69.702L278.093,74.982L277.639,71.907L227.034,52.553L218.373,69.702ZM183.65,66.632L189.806,67.177L202.004,42.981L199.789,42.133L183.65,66.632ZM195.963,40.67L128.553,14.889L117.679,55.07L123.448,57.158L128.095,61.72L179.124,66.232L195.963,40.67ZM313.908,64.69L316.77,65.817L271.551,-35.594L267.124,-26.829L273.045,13.326L313.908,64.69ZM278.567,50.776L306.465,61.76L274.208,21.213L278.567,50.776ZM236.33,34.146L274.274,49.086L269.245,14.974L255.034,-2.889L236.33,34.146ZM134.221,-6.055L207.689,22.87L226.659,-5.926L236.728,-25.9L215.809,-52.193L147.027,-53.376L134.221,-6.055ZM263.995,-20.632L257.019,-6.819L268.082,7.088L263.995,-20.632ZM122.431,-10.697L130.476,-7.53L141.916,-49.802L122.431,-10.697ZM-42.837,-50.659L-47.609,-8.394L-20.94,-22.71L-35.105,-47.702L-42.837,-50.659ZM31.693,-46.422L101,-19.135L118.273,-53.87L47.825,-55.082L31.693,-46.422ZM-17.414,-24.602L0.355,-34.14L-29.234,-45.457L-17.414,-24.602ZM238.71,-29.832L241.89,-36.141L249.689,-51.611L220.992,-52.104L238.71,-29.832ZM7.958,-55.767L26.814,-48.343L39.63,-55.222L7.958,-55.767ZM171.106,-108.384L148.997,-64.013L149.843,-63.784L148.105,-57.358L212.583,-56.25L171.106,-108.384ZM55.047,-58.958L144.741,-107.104C138.711,-94.974 130.248,-77.954 120.245,-57.837L55.047,-58.958ZM147.82,-113.297L148.343,-114.349L-16.631,-65.448L-2.667,-59.95L46.852,-59.099L147.82,-113.297Z" style="fill:white;fill-opacity:0.5;"/>
        <g id="_404" serif:id="404" transform="matrix(1,0,0,1,-31.8899,140.522)">
            <text x="162.792px" y="351.85px" style="font-family:'HelveticaNeue-Bold', 'Helvetica Neue';font-weight:700;font-size:220px;fill:white;fill-opacity:0.75;">404</text>
        </g>
    </g>
</svg>
